<svg id="visual" viewBox="0 0 900 600" width="900" height="600" xmlns="http://www.w3.org/2000/svg" xmlns:xlink="http://www.w3.org/1999/xlink" version="1.1"><rect x="0" y="0" width="900" height="600" fill="#eeeeee"></rect><defs><linearGradient id="grad1_0" x1="33.3%" y1="0%" x2="100%" y2="100%"><stop offset="20%" stop-color="#0066ff" stop-opacity="1"></stop><stop offset="80%" stop-color="#0066ff" stop-opacity="1"></stop></linearGradient></defs><defs><linearGradient id="grad1_1" x1="33.3%" y1="0%" x2="100%" y2="100%"><stop offset="20%" stop-color="#0066ff" stop-opacity="1"></stop><stop offset="80%" stop-color="#7385fc" stop-opacity="1"></stop></linearGradient></defs><defs><linearGradient id="grad1_2" x1="33.3%" y1="0%" x2="100%" y2="100%"><stop offset="20%" stop-color="#a4a7f8" stop-opacity="1"></stop><stop offset="80%" stop-color="#7385fc" stop-opacity="1"></stop></linearGradient></defs><defs><linearGradient id="grad1_3" x1="33.3%" y1="0%" x2="100%" y2="100%"><stop offset="20%" stop-color="#a4a7f8" stop-opacity="1"></stop><stop offset="80%" stop-color="#cbcaf4" stop-opacity="1"></stop></linearGradient></defs><defs><linearGradient id="grad1_4" x1="33.3%" y1="0%" x2="100%" y2="100%"><stop offset="20%" stop-color="#eeeeee" stop-opacity="1"></stop><stop offset="80%" stop-color="#cbcaf4" stop-opacity="1"></stop></linearGradient></defs><defs><linearGradient id="grad2_0" x1="0%" y1="0%" x2="66.7%" y2="100%"><stop offset="20%" stop-color="#0066ff" stop-opacity="1"></stop><stop offset="80%" stop-color="#0066ff" stop-opacity="1"></stop></linearGradient></defs><defs><linearGradient id="grad2_1" x1="0%" y1="0%" x2="66.7%" y2="100%"><stop offset="20%" stop-color="#7385fc" stop-opacity="1"></stop><stop offset="80%" stop-color="#0066ff" stop-opacity="1"></stop></linearGradient></defs><defs><linearGradient id="grad2_2" x1="0%" y1="0%" x2="66.7%" y2="100%"><stop offset="20%" stop-color="#7385fc" stop-opacity="1"></stop><stop offset="80%" stop-color="#a4a7f8" stop-opacity="1"></stop></linearGradient></defs><defs><linearGradient id="grad2_3" x1="0%" y1="0%" x2="66.7%" y2="100%"><stop offset="20%" stop-color="#cbcaf4" stop-opacity="1"></stop><stop offset="80%" stop-color="#a4a7f8" stop-opacity="1"></stop></linearGradient></defs><defs><linearGradient id="grad2_4" x1="0%" y1="0%" x2="66.7%" y2="100%"><stop offset="20%" stop-color="#cbcaf4" stop-opacity="1"></stop><stop offset="80%" stop-color="#eeeeee" stop-opacity="1"></stop></linearGradient></defs><g transform="translate(900, 0)"><path d="M0 459.7C-42.6 460.7 -85.1 461.7 -119 444C-152.8 426.4 -177.9 390 -213.5 369.8C-249.1 349.6 -295.1 345.5 -320.3 320.3C-345.6 295.2 -350.1 249 -368.9 213C-387.8 177 -421 151.3 -438.5 117.5C-456.1 83.7 -457.9 41.9 -459.7 0L0 0Z" fill="#dddcf1"></path><path d="M0 367.8C-34.1 368.6 -68.1 369.4 -95.2 355.2C-122.3 341.1 -142.4 312 -170.8 295.8C-199.2 279.7 -236.1 276.4 -256.3 256.3C-276.5 236.1 -280.1 199.2 -295.1 170.4C-310.2 141.6 -336.8 121 -350.8 94C-364.8 67 -366.3 33.5 -367.8 0L0 0Z" fill="#b8b8f6"></path><path d="M0 275.8C-25.5 276.4 -51.1 277 -71.4 266.4C-91.7 255.8 -106.8 234 -128.1 221.9C-149.4 209.7 -177 207.3 -192.2 192.2C-207.3 177.1 -210 149.4 -221.4 127.8C-232.7 106.2 -252.6 90.8 -263.1 70.5C-273.6 50.2 -274.7 25.1 -275.8 0L0 0Z" fill="#8d96fa"></path><path d="M0 183.9C-17 184.3 -34.1 184.7 -47.6 177.6C-61.1 170.5 -71.2 156 -85.4 147.9C-99.6 139.8 -118 138.2 -128.1 128.1C-138.2 118.1 -140 99.6 -147.6 85.2C-155.1 70.8 -168.4 60.5 -175.4 47C-182.4 33.5 -183.2 16.7 -183.9 0L0 0Z" fill="#5175fe"></path><path d="M0 91.9C-8.5 92.1 -17 92.3 -23.8 88.8C-30.6 85.3 -35.6 78 -42.7 74C-49.8 69.9 -59 69.1 -64.1 64.1C-69.1 59 -70 49.8 -73.8 42.6C-77.6 35.4 -84.2 30.3 -87.7 23.5C-91.2 16.7 -91.6 8.4 -91.9 0L0 0Z" fill="#0066ff"></path></g><g transform="translate(0, 600)"><path d="M0 -459.7C37.7 -447.7 75.4 -435.7 114.4 -426.9C153.4 -418.2 193.7 -412.6 227 -393.2C260.3 -373.8 286.6 -340.5 308.3 -308.3C330 -276.1 347 -244.9 371.5 -214.5C396.1 -184.1 428.1 -154.6 444 -119C460 -83.4 459.8 -41.7 459.7 0L0 0Z" fill="#dddcf1"></path><path d="M0 -367.8C30.2 -358.2 60.3 -348.6 91.5 -341.6C122.7 -334.5 155 -330.1 181.6 -314.5C208.2 -299 229.3 -272.4 246.6 -246.6C264 -220.9 277.6 -195.9 297.2 -171.6C316.8 -147.3 342.5 -123.7 355.2 -95.2C368 -66.7 367.9 -33.3 367.8 0L0 0Z" fill="#b8b8f6"></path><path d="M0 -275.8C22.6 -268.6 45.2 -261.4 68.6 -256.2C92 -250.9 116.2 -247.6 136.2 -235.9C156.2 -224.3 172 -204.3 185 -185C198 -165.6 208.2 -146.9 222.9 -128.7C237.6 -110.5 256.9 -92.8 266.4 -71.4C276 -50 275.9 -25 275.8 0L0 0Z" fill="#8d96fa"></path><path d="M0 -183.9C15.1 -179.1 30.2 -174.3 45.8 -170.8C61.4 -167.3 77.5 -165 90.8 -157.3C104.1 -149.5 114.7 -136.2 123.3 -123.3C132 -110.4 138.8 -97.9 148.6 -85.8C158.4 -73.7 171.2 -61.8 177.6 -47.6C184 -33.3 183.9 -16.7 183.9 0L0 0Z" fill="#5175fe"></path><path d="M0 -91.9C7.5 -89.5 15.1 -87.1 22.9 -85.4C30.7 -83.6 38.7 -82.5 45.4 -78.6C52.1 -74.8 57.3 -68.1 61.7 -61.7C66 -55.2 69.4 -49 74.3 -42.9C79.2 -36.8 85.6 -30.9 88.8 -23.8C92 -16.7 92 -8.3 91.9 0L0 0Z" fill="#0066ff"></path></g></svg>